<svg id="Layer_1" data-name="Layer 1" xmlns="http://www.w3.org/2000/svg" viewBox="0 0 64 64"><defs><style>.cls-1{fill:#fff;}</style></defs><title>icon-scan</title><g id="Layer_60" data-name="Layer 60"><path class="cls-1" d="M12,27a1.5,1.5,0,0,0,1.5-1.5v-12h12a1.5,1.5,0,0,0,0-3H12A1.51,1.51,0,0,0,10.5,12V25.45A1.5,1.5,0,0,0,12,27Z"/><path class="cls-1" d="M38.55,13.48h12v12a1.5,1.5,0,1,0,3,0V12a1.51,1.51,0,0,0-1.5-1.5H38.55a1.5,1.5,0,0,0,0,3Z"/><path class="cls-1" d="M52,37.05a1.5,1.5,0,0,0-1.5,1.5v12h-12a1.5,1.5,0,0,0,0,3H52a1.51,1.51,0,0,0,1.5-1.5V38.55A1.5,1.5,0,0,0,52,37.05Z"/><path class="cls-1" d="M25.45,50.52h-12v-12a1.5,1.5,0,0,0-3,0V52A1.51,1.51,0,0,0,12,53.5h13.5a1.5,1.5,0,0,0,0-3Z"/><path class="cls-1" d="M54.24,30.5H9.76a1.5,1.5,0,1,0,0,3H54.24a1.5,1.5,0,1,0,0-3Z"/></g></svg>