<svg xmlns="http://www.w3.org/2000/svg" xmlns:xlink="http://www.w3.org/1999/xlink" width="24" height="24" viewBox="0 0 24 24">
  <defs>
    <clipPath id="clip-path">
      <path id="Path_481" data-name="Path 481" d="M1394.495,273.059c-.489.978-4.811-2.4-8.119-2.4s-7.63,3.373-8.119,2.4a1.833,1.833,0,0,1-.1-.949,12.7,12.7,0,0,1,.835-2.941s4.066-2.339,7.383-2.339,7.383,2.339,7.383,2.339a12.71,12.71,0,0,1,.835,2.941A1.834,1.834,0,0,1,1394.495,273.059Z" transform="translate(-1378.141 -266.83)" fill="#3c7ceb"/>
    </clipPath>
  </defs>
  <g id="Group_4177" data-name="Group 4177" transform="translate(-138 -648)">
    <circle id="Ellipse_132" data-name="Ellipse 132" cx="12" cy="12" r="12" transform="translate(138 648)" fill="#f9d5d4" opacity="0.65"/>
    <g id="Group_1318" data-name="Group 1318" transform="translate(141.766 652.804)">
      <g id="Group_1312" data-name="Group 1312" transform="translate(0)">
        <path id="Path_462" data-name="Path 462" d="M1454.336,45.846a20.563,20.563,0,0,0-.094-4.879,6.688,6.688,0,0,0-2.689-3.649h0a9.968,9.968,0,0,0-6.521,0h0a6.856,6.856,0,0,0-2.744,3.824,19.831,19.831,0,0,0-.04,4.7,11.378,11.378,0,0,1,12.087,0Z" transform="translate(-1440.056 -36.77)" fill="#ededf4"/>
        <path id="Path_463" data-name="Path 463" d="M1400.989,60.475q0,.312.01.637l0,0-.618.6-.728.087s-.046-.229-.09-.616h0c-.2-1.79-.365-6.97,4.211-8.615C1403.739,52.6,1400.991,54.748,1400.989,60.475Z" transform="translate(-1398.796 -52.062)" fill="#d43f37"/>
        <path id="Path_464" data-name="Path 464" d="M1739.741,61.185c-.044.387-.089.616-.089.616l-.729-.087-.618-.6,0,0c.007-.217.011-.429.011-.637,0-5.726-2.75-7.879-2.784-7.9C1740.106,54.215,1739.944,59.394,1739.741,61.185Z" transform="translate(-1724.035 -52.062)" fill="#d43f37"/>
        <path id="Path_465" data-name="Path 465" d="M1394.495,273.059c-.489.978-4.811-2.4-8.119-2.4s-7.63,3.373-8.119,2.4a1.833,1.833,0,0,1-.1-.949,12.7,12.7,0,0,1,.835-2.941s4.066-2.339,7.383-2.339,7.383,2.339,7.383,2.339a12.71,12.71,0,0,1,.835,2.941A1.834,1.834,0,0,1,1394.495,273.059Z" transform="translate(-1378.141 -259.43)" fill="#fc544b"/>
        <g id="Group_1311" data-name="Group 1311" transform="translate(5.927 1.959)">
          <path id="Path_466" data-name="Path 466" d="M1593.1,211.5a.85.85,0,0,0,.433.158l-.032-.211a1.113,1.113,0,0,1-.384-.143.8.8,0,0,0-.946.033l-.022.013-.022-.013a.8.8,0,0,0-.946-.033,1.112,1.112,0,0,1-.384.143l-.033.211a.85.85,0,0,0,.433-.158,13.838,13.838,0,0,0,1.9,0Z" transform="translate(-1589.849 -207.516)" fill="#fff"/>
          <path id="Path_467" data-name="Path 467" d="M1592.816,219.622a.9.9,0,0,1-.491-.17.659.659,0,0,0-.882.047l-.026.019-.026-.019a.659.659,0,0,0-.882-.047.9.9,0,0,1-.491.17l-.011.07a.792.792,0,0,0,.453-.168,10.9,10.9,0,0,0,1.911,0,.793.793,0,0,0,.453.168l-.011-.07Z" transform="translate(-1589.121 -215.393)" fill="#f4f4f7"/>
          <path id="Path_468" data-name="Path 468" d="M1629.138,197.621q.032-.038.067-.075c.028-.029.057-.057.088-.084a.647.647,0,0,1-.048-.087.893.893,0,0,1-.044-.119.17.17,0,0,1-.026-.019l0,0-.035.047-.035-.047,0,0a.17.17,0,0,1-.026.019.893.893,0,0,1-.044.119.66.66,0,0,1-.047.087c.031.027.061.055.088.084s.046.05.067.075Z" transform="translate(-1626.841 -194.031)" fill="#ffc107"/>
          <path id="Path_469" data-name="Path 469" d="M1631.11,212.163l-.069.016-.024.03-.024-.03-.069-.016q.045.023.093.05c.032-.018.063-.035.093-.05Z" transform="translate(-1628.72 -208.481)" fill="#ffc107"/>
          <path id="Path_470" data-name="Path 470" d="M1654.453,147.75l-.077-.044-.015,0a.237.237,0,0,0-.146.034.212.212,0,0,0-.1.127.191.191,0,0,0,0,.023h0a.522.522,0,0,0,.078.221.91.91,0,0,1,.125.4v0h0a.759.759,0,0,1-.193.5.62.62,0,0,1-.343.189.4.4,0,0,0,.112.069.258.258,0,0,0,.188,0l.027-.01.02.021a.283.283,0,0,0,.075.058.451.451,0,0,0,.284.036.555.555,0,0,0,.275-.129.914.914,0,0,1-.291.016l.008-.086a.613.613,0,0,0,.592-.228.534.534,0,0,0,.057-.106h0l.01-.027a.78.78,0,0,1-.243.067,1.5,1.5,0,0,1-.33,0l.009-.086a1.415,1.415,0,0,0,.311,0,.571.571,0,0,0,.312-.121.352.352,0,0,0,.118-.238c0-.006,0-.013,0-.019a.7.7,0,0,1-.383.149,1.578,1.578,0,0,1-.229.01l0-.087a1.49,1.49,0,0,0,.217-.01.6.6,0,0,0,.343-.134.359.359,0,0,0,.112-.249.653.653,0,0,1-.553.173l.008-.087a.531.531,0,0,0,.546-.23.446.446,0,0,0,.038-.085.453.453,0,0,0,.019-.087h0a.555.555,0,0,0-.149-.378l-.014-.021a.524.524,0,0,1-.056.367.337.337,0,0,1-.059.069.343.343,0,0,1-.065.046h0c-.224.122-.435,0-.633-.118Z" transform="translate(-1650.837 -145.787)" fill="#ffc107"/>
          <path id="Path_471" data-name="Path 471" d="M1642.281,155.018a1.041,1.041,0,0,0,.2.57.865.865,0,0,0,.061.071.623.623,0,0,0-.046-.366.83.83,0,0,0-.215-.276Z" transform="translate(-1639.712 -153.174)" fill="#ffc107"/>
          <path id="Path_472" data-name="Path 472" d="M1632.158,193.258l-.009-.005a.417.417,0,0,1-.041-.027l-.02.013.033.015a.126.126,0,0,1,.022.013l.014-.009Z" transform="translate(-1629.848 -190.153)" fill="#ffc107"/>
          <path id="Path_473" data-name="Path 473" d="M1624.081,161.276a1.364,1.364,0,0,1-.211-.537.925.925,0,0,0,.042.425.59.59,0,0,1,.026.36l-.083-.02a.875.875,0,0,0-.091-.394l-.016-.04a.551.551,0,0,1-.023.139h0a.45.45,0,0,1-.09.135.211.211,0,0,0-.07.13.347.347,0,0,0,.091.232.3.3,0,0,0,.035.032l.029.02a.424.424,0,0,0,.055-.025.283.283,0,0,0,.055-.039l.029-.027.029.026a.333.333,0,0,0,.056.04.34.34,0,0,0,.044.022.524.524,0,0,0,.147-.215.446.446,0,0,0,.016-.053.377.377,0,0,0,.008-.053h0a.568.568,0,0,0-.078-.159Z" transform="translate(-1621.599 -158.711)" fill="#fc544b"/>
          <path id="Path_474" data-name="Path 474" d="M1563.468,147.705l-.077.044c-.2.116-.409.24-.633.118h0a.348.348,0,0,1-.065-.046.333.333,0,0,1-.059-.069.524.524,0,0,1-.056-.367l-.014.021a.555.555,0,0,0-.149.378h0a.444.444,0,0,0,.019.087.438.438,0,0,0,.038.085.531.531,0,0,0,.546.23l.007.087a.653.653,0,0,1-.553-.173.358.358,0,0,0,.112.249.6.6,0,0,0,.342.134,1.492,1.492,0,0,0,.217.01l0,.087a1.576,1.576,0,0,1-.229-.01.7.7,0,0,1-.383-.149v.019a.353.353,0,0,0,.118.238.572.572,0,0,0,.312.121,1.415,1.415,0,0,0,.311,0l.009.086a1.5,1.5,0,0,1-.33,0,.781.781,0,0,1-.243-.067l.01.027h0a.547.547,0,0,0,.057.106.613.613,0,0,0,.592.228l.008.086a.913.913,0,0,1-.291-.016.554.554,0,0,0,.275.129.451.451,0,0,0,.284-.036.281.281,0,0,0,.075-.058l.02-.021.027.01a.258.258,0,0,0,.188,0,.393.393,0,0,0,.112-.069.621.621,0,0,1-.343-.189.759.759,0,0,1-.193-.5h0v0h0v0h0a.915.915,0,0,1,.125-.4.513.513,0,0,0,.078-.222.191.191,0,0,0,0-.023.213.213,0,0,0-.1-.127.238.238,0,0,0-.146-.034l-.014,0Z" transform="translate(-1562.413 -145.787)" fill="#ffc107"/>
          <path id="Path_475" data-name="Path 475" d="M1617.036,155.588a1.041,1.041,0,0,0,.2-.57.832.832,0,0,0-.215.276.624.624,0,0,0-.046.366.842.842,0,0,0,.061-.071Z" transform="translate(-1615.211 -153.174)" fill="#ffc107"/>
          <path id="Path_476" data-name="Path 476" d="M1627.227,129.028h0l.195.211.195-.211a.083.083,0,0,0,.014-.079.088.088,0,0,0-.006-.016h0l-.009-.014h0l-.193-.24-.193.24a.1.1,0,0,0-.016.083.068.068,0,0,0,.006.014.056.056,0,0,0,.008.012Z" transform="translate(-1625.125 -127.681)" fill="#ffc107"/>
          <path id="Path_477" data-name="Path 477" d="M1600.9,144.04l-.153-.165,0,.265c0,.03,0,.059,0,.086a1.132,1.132,0,0,1-.218.63.5.5,0,0,1-.292.216h-.009a.079.079,0,0,1-.035-.014.151.151,0,0,1-.025-.023.3.3,0,0,1-.069-.2h0a.777.777,0,0,1,.034-.165.367.367,0,0,0-.03-.37.22.22,0,0,0-.263-.064.348.348,0,0,1,.055.026.3.3,0,0,1,.142.179.264.264,0,0,1,.007.034.541.541,0,0,1-.086.272.853.853,0,0,0-.116.362v.006a.673.673,0,0,0,.17.442.546.546,0,0,0,.423.173h.025l.013.017a.614.614,0,0,0,.182.16.769.769,0,0,0,.156.066l-.009-.009a1.066,1.066,0,0,0-.111-.1l-.033-.027.026-.034a.548.548,0,0,0,.062-.1.813.813,0,0,0,.044-.125l.006-.021.02-.008a.071.071,0,0,0,.021-.014.124.124,0,0,0,.02-.023l.02-.03-.023.013a.515.515,0,0,1-.086.037l-.033,0-.007,0a.338.338,0,0,1-.052-.033.388.388,0,0,1-.046-.042.435.435,0,0,1-.113-.291.275.275,0,0,1,.091-.186.383.383,0,0,0,.074-.109h0a.517.517,0,0,0,.017-.118.521.521,0,0,1,.035-.179l.076.008a.457.457,0,0,1,.13-.378l.072.044v0h0a.929.929,0,0,0,.183.675.487.487,0,0,1,.09.209h0a.475.475,0,0,1-.01.065.542.542,0,0,1-.019.063.61.61,0,0,1-.194.27l-.018.014-.013,0h0a.073.073,0,0,0,.021.014l.02.008.006.021a.8.8,0,0,0,.044.125.536.536,0,0,0,.062.1l.026.034-.033.027a1.091,1.091,0,0,0-.111.1l-.009.009a.779.779,0,0,0,.156-.066.616.616,0,0,0,.182-.16l.013-.017h.025a.546.546,0,0,0,.423-.173.673.673,0,0,0,.17-.442v0a.849.849,0,0,0-.116-.365.55.55,0,0,1-.086-.27h0a.313.313,0,0,1,.007-.034.3.3,0,0,1,.142-.179.353.353,0,0,1,.055-.026.22.22,0,0,0-.263.064.367.367,0,0,0-.03.37.777.777,0,0,1,.034.165h0a.3.3,0,0,1-.07.2.143.143,0,0,1-.025.023.079.079,0,0,1-.035.014h-.009a.5.5,0,0,1-.292-.216,1.13,1.13,0,0,1-.218-.63q0-.041,0-.086l0-.265-.153.165-.032.035-.032-.035Z" transform="translate(-1598.635 -142.389)" fill="#f9ac50"/>
          <path id="Path_478" data-name="Path 478" d="M1604.148,98.443h0l.222,1.213a1.071,1.071,0,0,1,.234-.245l0-.341-.008-.013a.162.162,0,0,1-.013-.032.185.185,0,0,1,.032-.162l.227-.282.034-.042.034.042.227.282h0a.17.17,0,0,1,.018.028h0a.182.182,0,0,1,.012.031.174.174,0,0,1-.02.146l0,.341a1.071,1.071,0,0,1,.234.245l.222-1.213h0a.739.739,0,0,1,.089-.258.249.249,0,0,1,.085-.086.17.17,0,0,1,.062-.021.48.48,0,0,0-.1-.078.148.148,0,0,0-.1-.023.121.121,0,0,0-.075.056.56.56,0,0,0-.074.211l-.123.659-.086-.015.146-.919c.009-.052-.04-.078-.1-.108a.7.7,0,0,1-.1-.061l-.1.907-.087-.005.008-.833c0-.044-.027-.062-.06-.083a.113.113,0,0,0-.226,0c-.033.021-.061.039-.06.083l.008.833-.087.005-.1-.907a.692.692,0,0,1-.1.061c-.058.03-.106.055-.1.108l.146.919-.086.015-.123-.659a.555.555,0,0,0-.074-.211.12.12,0,0,0-.075-.056.149.149,0,0,0-.1.023.482.482,0,0,0-.1.078.169.169,0,0,1,.062.021.25.25,0,0,1,.085.086.734.734,0,0,1,.089.258Z" transform="translate(-1602.577 -97.682)" fill="#ffc107"/>
        </g>
      </g>
    </g>
    <g id="Mask_Group_1258" data-name="Mask Group 1258" transform="translate(141.766 660.203)" clip-path="url(#clip-path)">
      <circle id="Ellipse_133" data-name="Ellipse 133" cx="6.5" cy="6.5" r="6.5" transform="translate(-4.766 -6.204)" fill="#f9d5d4" opacity="0.25"/>
    </g>
  </g>
</svg>
