<svg xmlns="http://www.w3.org/2000/svg" xmlns:xlink="http://www.w3.org/1999/xlink" width="24" height="24" viewBox="0 0 24 24">
  <defs>
    <clipPath id="clip-path">
      <path id="Path_482" data-name="Path 482" d="M1394.678,273.129c-.494.988-4.865-2.423-8.21-2.423s-7.716,3.411-8.21,2.423a1.856,1.856,0,0,1-.1-.96A12.848,12.848,0,0,1,1379,269.2s4.112-2.365,7.465-2.365,7.466,2.365,7.466,2.365a12.849,12.849,0,0,1,.844,2.974A1.855,1.855,0,0,1,1394.678,273.129Z" transform="translate(-1378.141 -266.83)" fill="#3c7ceb"/>
    </clipPath>
  </defs>
  <g id="icon-smk-mak" transform="translate(-138.413 -864.413)">
    <circle id="Ellipse_134" data-name="Ellipse 134" cx="12" cy="12" r="12" transform="translate(138.413 864.413)" fill="#ededf4" opacity="0.65"/>
    <g id="Group_1319" data-name="Group 1319" transform="translate(142.087 869.136)">
      <g id="Group_1312" data-name="Group 1312" transform="translate(0)">
        <path id="Path_462" data-name="Path 462" d="M1454.473,45.948a20.8,20.8,0,0,0-.1-4.933,6.763,6.763,0,0,0-2.72-3.69h0a10.079,10.079,0,0,0-6.594,0h0a6.932,6.932,0,0,0-2.775,3.867,20.052,20.052,0,0,0-.041,4.756,11.505,11.505,0,0,1,12.222,0Z" transform="translate(-1440.033 -36.77)" fill="#ededf4"/>
        <path id="Path_463" data-name="Path 463" d="M1401.006,60.563q0,.315.01.644l0,0-.625.606-.736.088s-.046-.231-.09-.623h0c-.2-1.81-.369-7.048,4.259-8.711C1403.787,52.6,1401.008,54.773,1401.006,60.563Z" transform="translate(-1398.788 -52.056)" fill="#747998"/>
        <path id="Path_464" data-name="Path 464" d="M1739.788,61.281c-.044.392-.09.623-.09.623l-.737-.088-.625-.606,0,0q.011-.329.011-.644c0-5.791-2.781-7.967-2.815-7.993C1740.157,54.234,1739.993,59.471,1739.788,61.281Z" transform="translate(-1723.906 -52.056)" fill="#747998"/>
        <path id="Path_465" data-name="Path 465" d="M1394.678,273.129c-.494.988-4.865-2.423-8.21-2.423s-7.716,3.411-8.21,2.423a1.856,1.856,0,0,1-.1-.96A12.848,12.848,0,0,1,1379,269.2s4.112-2.365,7.465-2.365,7.466,2.365,7.466,2.365a12.849,12.849,0,0,1,.844,2.974A1.855,1.855,0,0,1,1394.678,273.129Z" transform="translate(-1378.141 -259.347)" fill="#8a90b2"/>
        <g id="Group_1311" data-name="Group 1311" transform="translate(5.994 1.981)">
          <path id="Path_466" data-name="Path 466" d="M1593.124,211.5a.858.858,0,0,0,.438.159l-.033-.213a1.124,1.124,0,0,1-.388-.145.813.813,0,0,0-.957.033l-.022.013-.022-.013a.813.813,0,0,0-.957-.033,1.124,1.124,0,0,1-.388.145l-.033.213a.86.86,0,0,0,.438-.159,14,14,0,0,0,1.924,0Z" transform="translate(-1589.839 -207.475)" fill="#fff"/>
          <path id="Path_467" data-name="Path 467" d="M1592.848,219.625a.909.909,0,0,1-.5-.172.666.666,0,0,0-.892.047l-.026.019-.026-.019a.666.666,0,0,0-.892-.047.91.91,0,0,1-.5.172l-.011.071a.8.8,0,0,0,.458-.17,11.027,11.027,0,0,0,1.933,0,.8.8,0,0,0,.458.17l-.011-.071Z" transform="translate(-1589.112 -215.349)" fill="#f4f4f7"/>
          <path id="Path_468" data-name="Path 468" d="M1629.139,197.625c.021-.026.044-.051.068-.076a1.211,1.211,0,0,1,.089-.085.658.658,0,0,1-.048-.088.9.9,0,0,1-.045-.121.166.166,0,0,1-.026-.02l0,0-.035.047-.035-.047,0,0a.172.172,0,0,1-.026.02.9.9,0,0,1-.045.121.644.644,0,0,1-.048.088,1.211,1.211,0,0,1,.089.085c.024.025.046.051.068.076Z" transform="translate(-1626.817 -193.995)" fill="#ffc107"/>
          <path id="Path_469" data-name="Path 469" d="M1631.112,212.163l-.07.016-.024.031-.024-.031-.07-.016q.045.023.094.051.048-.028.094-.051Z" transform="translate(-1628.696 -208.439)" fill="#ffc107"/>
          <path id="Path_470" data-name="Path 470" d="M1654.46,147.754l-.077-.045-.015,0a.24.24,0,0,0-.147.034.215.215,0,0,0-.1.128.2.2,0,0,0,0,.024h0a.526.526,0,0,0,.078.224.92.92,0,0,1,.126.409v0h0a.768.768,0,0,1-.2.5.628.628,0,0,1-.346.191.4.4,0,0,0,.113.07.262.262,0,0,0,.19,0l.028-.01.02.022a.285.285,0,0,0,.076.058.456.456,0,0,0,.287.036.56.56,0,0,0,.278-.13.925.925,0,0,1-.295.016l.008-.087a.62.62,0,0,0,.6-.23.531.531,0,0,0,.057-.108h0l.01-.027a.789.789,0,0,1-.245.068,1.518,1.518,0,0,1-.334,0l.009-.087a1.431,1.431,0,0,0,.315,0,.577.577,0,0,0,.315-.122.355.355,0,0,0,.119-.241c0-.006,0-.013,0-.019a.7.7,0,0,1-.387.151,1.594,1.594,0,0,1-.232.01l0-.088a1.511,1.511,0,0,0,.219-.01.609.609,0,0,0,.346-.135.363.363,0,0,0,.113-.252.661.661,0,0,1-.559.175l.008-.088a.536.536,0,0,0,.552-.232.464.464,0,0,0,.039-.086.453.453,0,0,0,.019-.088h0a.561.561,0,0,0-.151-.383l-.014-.021a.529.529,0,0,1-.056.371.337.337,0,0,1-.059.07.344.344,0,0,1-.065.046h0c-.227.124-.44,0-.64-.119Z" transform="translate(-1650.805 -145.769)" fill="#ffc107"/>
          <path id="Path_471" data-name="Path 471" d="M1642.281,155.018a1.052,1.052,0,0,0,.2.576.874.874,0,0,0,.061.072.63.63,0,0,0-.046-.37.837.837,0,0,0-.217-.279Z" transform="translate(-1639.683 -153.153)" fill="#ffc107"/>
          <path id="Path_472" data-name="Path 472" d="M1632.159,193.259l-.009-.005a.422.422,0,0,1-.041-.028l-.02.013.034.015a.126.126,0,0,1,.022.013l.014-.009Z" transform="translate(-1629.823 -190.118)" fill="#ffc107"/>
          <path id="Path_473" data-name="Path 473" d="M1624.087,161.282a1.381,1.381,0,0,1-.213-.543.933.933,0,0,0,.043.429.6.6,0,0,1,.027.364l-.084-.02a.885.885,0,0,0-.092-.4l-.016-.04a.557.557,0,0,1-.023.141h0a.457.457,0,0,1-.091.137.212.212,0,0,0-.071.131.351.351,0,0,0,.092.235.3.3,0,0,0,.036.033l.029.02a.43.43,0,0,0,.055-.025.29.29,0,0,0,.056-.039l.029-.027.03.027a.344.344,0,0,0,.1.063.531.531,0,0,0,.149-.217.48.48,0,0,0,.016-.054.386.386,0,0,0,.008-.053h0a.575.575,0,0,0-.079-.161Z" transform="translate(-1621.577 -158.688)" fill="#fc544b"/>
          <path id="Path_474" data-name="Path 474" d="M1563.48,147.709l-.078.045c-.2.117-.413.243-.64.119h0a.348.348,0,0,1-.065-.046.337.337,0,0,1-.059-.07.53.53,0,0,1-.056-.371l-.014.021a.562.562,0,0,0-.151.383h0a.458.458,0,0,0,.058.173.537.537,0,0,0,.552.232l.008.088a.66.66,0,0,1-.559-.175.362.362,0,0,0,.113.252.61.61,0,0,0,.346.135,1.508,1.508,0,0,0,.219.01l0,.088a1.593,1.593,0,0,1-.232-.01.7.7,0,0,1-.387-.151c0,.006,0,.013,0,.019a.355.355,0,0,0,.119.241.578.578,0,0,0,.315.122,1.432,1.432,0,0,0,.315,0l.009.087a1.516,1.516,0,0,1-.334,0,.792.792,0,0,1-.246-.068l.01.027h0a.544.544,0,0,0,.057.108.62.62,0,0,0,.6.23l.008.087a.924.924,0,0,1-.295-.016.56.56,0,0,0,.278.13.456.456,0,0,0,.287-.036.282.282,0,0,0,.076-.058l.02-.022.028.01a.261.261,0,0,0,.19,0,.4.4,0,0,0,.113-.07.627.627,0,0,1-.346-.191.767.767,0,0,1-.2-.5h0v0h0v0h0a.925.925,0,0,1,.126-.407.518.518,0,0,0,.078-.225.2.2,0,0,0,0-.024.215.215,0,0,0-.1-.128.24.24,0,0,0-.147-.034l-.015,0Z" transform="translate(-1562.413 -145.769)" fill="#ffc107"/>
          <path id="Path_475" data-name="Path 475" d="M1617.036,155.594a1.051,1.051,0,0,0,.2-.576.843.843,0,0,0-.217.279.63.63,0,0,0-.046.37.851.851,0,0,0,.061-.072Z" transform="translate(-1615.192 -153.153)" fill="#ffc107"/>
          <path id="Path_476" data-name="Path 476" d="M1627.227,129.032h0l.2.213.2-.213a.084.084,0,0,0,.014-.08.09.09,0,0,0-.006-.016h0l-.009-.014h0l-.195-.243-.195.243a.1.1,0,0,0-.017.084.078.078,0,0,0,.006.015.069.069,0,0,0,.008.012Z" transform="translate(-1625.101 -127.67)" fill="#ffc107"/>
          <path id="Path_477" data-name="Path 477" d="M1600.912,144.042l-.154-.167,0,.268c0,.03,0,.059,0,.087a1.143,1.143,0,0,1-.22.637.51.51,0,0,1-.3.219h-.009a.081.081,0,0,1-.036-.014.154.154,0,0,1-.026-.023.3.3,0,0,1-.07-.2h0a.787.787,0,0,1,.035-.167.372.372,0,0,0-.031-.374.223.223,0,0,0-.266-.065.355.355,0,0,1,.055.026.3.3,0,0,1,.143.181.25.25,0,0,1,.007.034.548.548,0,0,1-.087.275.863.863,0,0,0-.117.366v.006a.68.68,0,0,0,.172.447.553.553,0,0,0,.428.175h.025l.014.017a.622.622,0,0,0,.184.161.781.781,0,0,0,.158.067l-.009-.009a1.1,1.1,0,0,0-.112-.1l-.034-.027.026-.034a.546.546,0,0,0,.063-.105.791.791,0,0,0,.045-.126l.006-.021.02-.008a.072.072,0,0,0,.021-.014.136.136,0,0,0,.02-.024l.02-.031-.023.014a.521.521,0,0,1-.087.037l-.033,0-.008,0a.348.348,0,0,1-.053-.034.4.4,0,0,1-.046-.043.44.44,0,0,1-.115-.295.279.279,0,0,1,.092-.189.387.387,0,0,0,.075-.111h0a.534.534,0,0,0,.017-.119.529.529,0,0,1,.035-.181l.076.008a.462.462,0,0,1,.131-.382l.073.044v0h0a.939.939,0,0,0,.185.683.491.491,0,0,1,.091.212h0a.451.451,0,0,1-.01.066.489.489,0,0,1-.019.064.616.616,0,0,1-.2.273l-.018.014-.013,0h0a.076.076,0,0,0,.021.014l.02.008.006.021a.791.791,0,0,0,.045.126.546.546,0,0,0,.063.105l.026.034-.034.027a1.1,1.1,0,0,0-.112.1l-.009.009a.787.787,0,0,0,.158-.067.622.622,0,0,0,.184-.161l.014-.017h.025a.552.552,0,0,0,.428-.175.68.68,0,0,0,.172-.447v0a.859.859,0,0,0-.117-.369.56.56,0,0,1-.087-.273h0a.292.292,0,0,1,.007-.034.3.3,0,0,1,.143-.181.357.357,0,0,1,.055-.026.223.223,0,0,0-.266.065.372.372,0,0,0-.031.374.8.8,0,0,1,.034.167h0a.3.3,0,0,1-.07.2.154.154,0,0,1-.026.023.08.08,0,0,1-.036.014h-.009a.51.51,0,0,1-.3-.219,1.144,1.144,0,0,1-.22-.637c0-.028,0-.057,0-.087l0-.268-.154.167-.032.035-.032-.035Z" transform="translate(-1598.622 -142.373)" fill="#f9ac50"/>
          <path id="Path_478" data-name="Path 478" d="M1604.151,98.452h0l.224,1.227a1.082,1.082,0,0,1,.237-.247l0-.345-.008-.013a.172.172,0,0,1-.013-.032.187.187,0,0,1,.033-.163l.229-.285.034-.043.034.043.229.285h0a.172.172,0,0,1,.018.029h0a.182.182,0,0,1-.008.179l0,.344a1.085,1.085,0,0,1,.237.247l.224-1.227h0a.745.745,0,0,1,.09-.26.253.253,0,0,1,.086-.087.172.172,0,0,1,.062-.021.484.484,0,0,0-.1-.079.15.15,0,0,0-.1-.023.122.122,0,0,0-.076.057.56.56,0,0,0-.075.213l-.124.667-.086-.015.148-.929c.008-.053-.04-.079-.1-.109a.712.712,0,0,1-.1-.061l-.1.918-.088-.005.008-.842c0-.045-.028-.063-.061-.084a.115.115,0,0,0-.229,0c-.033.021-.061.039-.061.084l.008.842-.087.005-.1-.918a.706.706,0,0,1-.1.061c-.058.03-.107.056-.1.109l.148.929-.087.015-.124-.667a.564.564,0,0,0-.075-.213.122.122,0,0,0-.076-.057.15.15,0,0,0-.1.023.487.487,0,0,0-.1.079.171.171,0,0,1,.062.021.252.252,0,0,1,.086.087.747.747,0,0,1,.09.26Z" transform="translate(-1602.562 -97.682)" fill="#ffc107"/>
        </g>
      </g>
    </g>
    <g id="Mask_Group_1259" data-name="Mask Group 1259" transform="translate(142.087 876.619)" clip-path="url(#clip-path)">
      <circle id="Ellipse_135" data-name="Ellipse 135" cx="6.5" cy="6.5" r="6.5" transform="translate(-4.674 -6.206)" fill="#f4f4f7" opacity="0.15"/>
    </g>
  </g>
</svg>
